<?xml version="1.0" standalone="no"?>
<!DOCTYPE svg PUBLIC "-//W3C//DTD SVG 20010904//EN"
 "http://www.w3.org/TR/2001/REC-SVG-20010904/DTD/svg10.dtd">
<svg version="1.0" xmlns="http://www.w3.org/2000/svg"
 width="1910.000000pt" height="1911.000000pt" viewBox="0 0 1910.000000 1911.000000"
 preserveAspectRatio="xMidYMid meet">

<g transform="translate(0.000000,1911.000000) scale(0.100000,-0.100000)"
fill=" rgba(255, 255, 255, 0.6)" stroke="none">
<path d="M10113 19103 l-123 -4 0 -52 1 -52 64 -29 c63 -28 65 -30 60 -60 -3
-17 -23 -146 -44 -286 -115 -760 -206 -1339 -211 -1334 -3 3 -84 395 -180 872
l-176 867 -59 3 c-33 2 -83 1 -110 -3 l-51 -6 -148 -858 c-81 -473 -151 -874
-156 -892 -7 -33 -7 -33 -13 -9 -8 29 -277 1626 -277 1641 0 5 29 23 65 39
l65 29 0 56 0 55 -82 0 c-46 0 -188 -3 -315 -7 l-233 -6 0 -49 c0 -48 0 -48
51 -76 28 -15 59 -34 70 -42 16 -13 52 -193 220 -1105 111 -599 204 -1093 208
-1096 3 -3 80 -3 171 -1 l165 4 130 674 c71 370 132 670 136 666 3 -4 68 -297
143 -652 76 -355 140 -653 143 -664 5 -17 16 -18 178 -14 96 2 176 6 178 8 3
3 83 502 179 1110 l174 1105 59 36 c60 36 60 36 63 87 l3 52 -113 -2 c-62 -1
-168 -4 -235 -5z"/>
<path d="M11424 18885 c-6 -44 -5 -46 46 -101 34 -38 50 -63 47 -75 -3 -10
-103 -443 -222 -961 -120 -519 -221 -948 -226 -953 -4 -6 -43 -23 -87 -39
l-79 -29 -11 -46 c-6 -25 -9 -47 -8 -48 6 -6 618 -144 622 -141 2 3 7 25 10
50 6 43 5 46 -50 105 -31 33 -56 68 -56 77 0 17 425 1863 438 1905 6 17 26 31
77 51 68 27 70 29 81 74 9 36 9 48 1 51 -34 11 -545 125 -559 125 -12 0 -19
-12 -24 -45z"/>
<path d="M6505 18616 c-308 -100 -560 -187 -560 -192 0 -5 4 -23 9 -41 7 -30
13 -34 84 -56 l77 -23 307 -944 c169 -520 308 -948 308 -951 0 -4 -25 -39 -56
-78 l-56 -71 15 -43 c8 -24 20 -42 28 -41 23 2 1173 376 1183 385 7 6 -136
477 -151 498 -2 3 -35 -5 -73 -18 l-70 -22 0 -122 c0 -67 -3 -145 -6 -173 l-6
-51 -270 -88 c-148 -48 -272 -85 -275 -81 -4 3 3 16 15 29 13 14 22 36 22 55
0 18 -52 191 -115 385 -63 195 -115 359 -115 365 0 10 269 102 297 102 6 0 42
-31 79 -69 l69 -69 46 16 47 17 -86 265 c-47 146 -87 267 -89 269 -1 2 -23 -2
-47 -9 -50 -14 -51 -17 -61 -105 -12 -122 2 -108 -168 -164 -109 -36 -154 -47
-158 -38 -22 40 -270 830 -263 837 8 8 410 140 425 140 3 0 48 -63 99 -141 66
-99 98 -139 109 -136 99 28 141 44 141 52 -1 25 -157 489 -165 491 -6 1 -262
-80 -570 -180z"/>
<path d="M12945 18461 c-21 -42 -19 -54 20 -115 19 -30 35 -61 35 -68 0 -7
-182 -420 -403 -918 l-403 -905 -88 -16 c-48 -9 -90 -20 -95 -25 -17 -19 -34
-75 -25 -83 12 -10 1146 -513 1148 -509 10 13 206 465 206 473 0 6 -28 23 -62
38 l-63 28 -120 -125 -120 -124 -262 116 c-145 64 -263 120 -263 125 0 4 9 7
20 7 12 0 34 7 49 15 24 12 52 67 187 370 87 196 161 358 165 360 4 3 72 -25
153 -62 l146 -66 0 -97 0 -96 46 -22 c26 -13 48 -22 49 -20 8 8 225 504 225
513 0 5 -19 18 -42 27 -35 15 -44 16 -57 5 -9 -7 -44 -37 -78 -67 l-63 -53
-92 41 c-51 22 -119 52 -150 66 l-57 25 180 403 c99 221 182 405 185 407 2 2
98 -38 214 -89 187 -83 209 -95 205 -114 -9 -42 -46 -318 -43 -321 15 -13 145
-62 150 -57 9 9 208 457 208 469 0 5 -237 114 -527 242 -291 129 -536 238
-545 243 -13 6 -21 2 -33 -21z"/>
<path d="M4235 17504 c-138 -86 -251 -157 -252 -158 -1 -1 10 -21 25 -44 l27
-42 76 0 76 0 527 -845 527 -845 -37 -81 -37 -82 19 -35 c10 -19 24 -36 30
-39 9 -3 1004 608 1038 638 8 7 -259 449 -271 449 -6 0 -123 -70 -123 -74 0
-1 16 -74 35 -161 20 -87 34 -163 31 -170 -5 -15 -445 -289 -452 -282 -3 3 -1
14 5 25 6 12 11 33 11 48 0 19 -153 272 -496 822 -273 436 -498 801 -501 810
-2 10 9 46 25 82 l30 64 -22 35 c-13 19 -27 36 -32 38 -5 2 -122 -67 -259
-153z"/>
<path d="M15033 17156 c-86 -21 -176 -72 -252 -142 -57 -53 -581 -709 -844
-1058 -151 -200 -168 -446 -45 -655 41 -70 174 -205 253 -258 134 -90 243
-132 366 -140 193 -13 344 67 500 265 l58 74 -77 60 c-42 34 -104 83 -138 109
l-61 48 -52 -69 c-66 -86 -145 -161 -202 -191 -70 -37 -156 -33 -237 10 -76
42 -163 132 -180 188 -28 95 -5 202 66 308 83 122 806 1037 854 1081 113 102
236 127 350 71 61 -30 125 -94 154 -155 45 -93 12 -228 -89 -361 -27 -35 -45
-67 -40 -71 20 -20 266 -210 268 -208 1 2 93 119 203 261 l202 257 -88 70
c-48 38 -90 70 -94 70 -4 0 -28 -18 -54 -40 -25 -23 -48 -40 -49 -38 -2 2 -10
32 -19 68 -21 83 -55 140 -129 217 -181 190 -422 278 -624 229z"/>
<path d="M2391 16785 c-22 -21 -81 -80 -129 -134 l-89 -96 62 -170 c78 -211
76 -210 186 -98 l76 78 -16 225 c-18 255 -20 258 -90 195z"/>
<path d="M2995 16399 c-270 -34 -558 -306 -620 -584 -22 -98 -16 -224 15 -314
44 -126 95 -184 502 -577 574 -555 585 -565 677 -613 177 -92 353 -93 536 -2
182 90 346 274 412 463 37 104 38 251 4 357 -47 142 -81 181 -575 659 -251
243 -480 461 -508 483 -130 102 -289 148 -443 128z m85 -312 c31 -13 76 -37
100 -54 25 -17 254 -233 509 -479 319 -308 476 -467 503 -508 98 -152 88 -292
-29 -417 -127 -136 -293 -136 -456 0 -74 62 -917 878 -965 935 -99 117 -127
235 -80 338 40 88 123 167 203 196 54 19 155 14 215 -11z"/>
<path d="M16882 15692 c-31 -26 -32 -29 -32 -104 l0 -77 -783 -569 c-431 -313
-793 -575 -804 -582 -18 -12 -32 -9 -96 13 -41 15 -81 27 -89 27 -8 0 -28 -12
-46 -27 l-32 -28 187 -257 186 -256 39 25 38 26 0 96 0 96 380 275 c209 151
384 276 389 278 14 5 110 -145 117 -184 17 -92 -16 -200 -92 -300 -21 -29
-120 -141 -219 -250 -217 -239 -244 -273 -281 -344 -40 -78 -40 -173 -1 -249
47 -91 162 -212 201 -211 6 0 33 16 59 36 47 34 48 36 32 54 -10 11 -20 39
-22 64 -10 87 17 126 336 476 256 281 328 442 266 593 -7 16 -4 17 21 10 88
-24 259 12 563 121 318 113 387 120 460 43 l23 -26 49 37 c27 20 49 39 49 43
0 14 -102 149 -145 193 -81 80 -111 91 -250 90 -132 0 -88 12 -515 -139 -115
-41 -149 -49 -230 -53 -83 -4 -103 -1 -146 17 -28 12 -66 38 -85 57 -29 30
-31 36 -19 48 8 8 160 119 338 248 l322 235 74 -26 74 -25 36 24 c20 14 36 28
36 33 0 10 -340 477 -348 477 -4 0 -22 -13 -40 -28z"/>
<path d="M1531 14465 c-119 -34 -231 -116 -321 -237 -34 -46 -145 -227 -247
-403 l-185 -320 23 -17 c40 -33 67 -33 134 0 l62 30 854 -494 c470 -271 857
-495 861 -496 5 -2 11 -44 14 -94 l7 -90 39 -23 c22 -13 44 -19 49 -14 4 4 77
128 162 275 l155 267 -41 24 -41 24 -83 -38 -83 -38 -312 180 c-172 99 -323
187 -336 195 l-22 15 29 42 c64 94 135 137 224 137 36 0 516 -74 681 -105 137
-26 203 -16 265 40 42 38 92 124 121 211 30 87 28 98 -32 131 l-52 30 -28 -33
c-35 -40 -106 -59 -181 -50 -29 4 -167 27 -307 51 -300 53 -371 56 -449 20
l-53 -25 8 37 c5 21 9 83 9 138 -1 93 -3 105 -35 170 -61 126 -166 209 -491
384 -150 81 -287 107 -398 76z m151 -342 c95 -44 377 -210 425 -250 85 -68
120 -162 99 -262 -12 -59 -140 -301 -160 -301 -11 0 -824 467 -843 484 -9 8 4
39 58 131 82 140 116 179 184 212 67 32 148 28 237 -14z"/>
<path d="M18185 13638 c-22 -11 -41 -22 -43 -23 -2 -1 -8 -36 -15 -76 l-12
-74 -895 -417 c-491 -230 -898 -418 -904 -418 -6 0 -44 20 -85 44 l-73 44 -42
-19 c-22 -10 -40 -24 -39 -31 4 -19 253 -551 263 -561 4 -5 26 1 48 12 37 19
41 25 48 68 3 27 9 66 13 88 l6 40 894 418 c492 229 900 417 907 417 7 0 41
-16 75 -36 l62 -37 44 22 c24 12 42 25 39 29 -2 4 -56 119 -119 254 -64 136
-119 253 -124 261 -7 13 -14 12 -48 -5z"/>
<path d="M13525 12840 c-4 -6 -5 -30 -4 -54 2 -34 -3 -53 -24 -85 -27 -40 -27
-42 -14 -94 14 -51 13 -53 -20 -119 -56 -113 -40 -172 51 -189 27 -5 51 -11
53 -13 2 -2 -17 -46 -43 -98 l-47 -95 28 -71 c40 -102 32 -126 -58 -170 -74
-36 -93 -62 -82 -119 3 -18 21 -53 41 -78 19 -25 45 -74 58 -108 13 -34 27
-69 31 -78 5 -13 -3 -17 -40 -22 -68 -10 -85 -22 -85 -62 0 -37 28 -75 54 -75
8 0 17 -4 21 -9 10 -17 24 -203 16 -224 -8 -20 -8 -20 -25 4 -22 32 -73 192
-82 259 -8 64 -34 94 -92 109 -25 7 -52 25 -73 49 -18 20 -35 36 -38 35 -4 -1
-6 33 -7 74 -1 88 -13 103 -77 103 -27 0 -48 -8 -69 -25 -16 -14 -39 -25 -50
-25 -18 0 -20 4 -15 36 4 20 16 60 28 89 33 80 22 115 -57 191 -76 74 -149
124 -180 124 -12 0 -45 -20 -73 -46 -67 -60 -90 -58 -106 11 -6 28 -20 68 -30
89 -60 126 -209 184 -337 131 -14 -6 -18 -2 -18 17 0 13 -6 32 -12 41 -14 18
-118 57 -154 57 -14 0 -51 -26 -99 -70 -103 -96 -158 -117 -120 -46 18 32 18
35 1 61 -21 32 -43 40 -127 49 -61 7 -68 5 -97 -19 -16 -14 -44 -49 -60 -78
-30 -54 -38 -59 -132 -100 -79 -34 -85 -45 -71 -115 11 -53 10 -61 -12 -117
-28 -67 -37 -72 -138 -74 -65 -1 -74 -9 -95 -77 -22 -72 -58 -126 -108 -159
-65 -43 -70 -58 -52 -139 9 -37 16 -69 16 -72 0 -15 -71 0 -100 21 -45 33 -89
33 -121 -1 -23 -25 -24 -31 -24 -164 l1 -139 -58 -6 c-55 -7 -58 -9 -86 -53
-24 -38 -31 -62 -36 -128 -6 -76 -5 -82 14 -87 11 -3 20 -12 20 -21 0 -12 10
-16 45 -16 25 0 45 -3 46 -7 0 -5 8 -51 17 -102 l17 -95 50 -20 c28 -12 78
-36 111 -55 l62 -34 7 -83 c5 -62 3 -93 -9 -127 -15 -46 -13 -71 14 -129 12
-25 18 -28 66 -28 37 0 67 -7 100 -25 41 -22 60 -25 145 -25 l99 0 26 -52 c20
-40 25 -60 20 -90 -8 -52 14 -102 73 -163 44 -45 49 -55 54 -109 7 -68 23 -90
108 -145 31 -20 75 -59 97 -88 35 -44 48 -53 92 -62 28 -6 60 -11 71 -11 32 0
142 -79 135 -97 -3 -8 -6 -19 -6 -24 0 -5 -22 -9 -49 -9 -58 0 -76 -14 -92
-73 -11 -41 -8 -165 7 -259 l7 -41 -47 5 c-46 6 -48 5 -63 -27 -11 -23 -26
-36 -52 -44 -72 -21 -115 -96 -110 -188 l3 -48 -54 -7 c-30 -5 -100 -19 -156
-33 -89 -23 -105 -24 -139 -13 -75 25 -101 94 -112 298 l-6 117 33 7 c19 3 41
12 49 20 9 8 78 27 154 42 133 27 141 28 255 16 115 -12 117 -12 135 10 14 17
17 31 12 58 -8 43 -19 57 -63 78 -27 13 -38 27 -47 57 -17 61 -93 199 -154
284 -30 42 -73 105 -96 141 -49 77 -92 115 -142 129 -35 10 -83 46 -83 63 0 4
12 8 26 8 46 0 64 17 64 59 0 22 -7 48 -17 60 -17 19 -34 22 -253 32 -129 6
-237 13 -239 15 -3 2 0 17 5 32 6 18 21 31 42 38 50 16 54 25 46 93 -5 43 -15
75 -35 105 -30 45 -241 265 -318 331 -37 31 -45 45 -49 82 -4 41 -11 49 -68
96 -35 28 -64 52 -64 54 0 2 7 15 16 28 30 45 -7 105 -65 105 -20 1 -47 7 -61
15 -39 22 -132 18 -247 -12 l-105 -28 -19 24 c-13 15 -19 39 -19 70 0 42 -4
51 -43 89 -61 60 -89 67 -168 42 -35 -11 -73 -20 -84 -20 -11 0 -29 -7 -39
-15 -18 -13 -19 -24 -13 -139 l6 -124 -65 -12 c-145 -25 -217 -68 -324 -194
-36 -42 -85 -93 -110 -112 l-45 -35 -7 75 c-4 44 -15 89 -25 107 -16 28 -22
30 -67 27 -40 -2 -53 -8 -70 -31 -19 -26 -21 -42 -22 -192 l0 -164 -50 -56
c-86 -100 -104 -134 -104 -201 0 -18 -5 -36 -10 -39 -6 -4 -29 -29 -50 -57
-31 -39 -40 -58 -40 -89 0 -58 23 -107 55 -115 40 -10 101 2 131 25 15 12 37
21 50 21 21 0 24 -5 24 -40 0 -39 -1 -40 -34 -40 -29 0 -36 -5 -45 -30 -7 -23
-16 -30 -35 -30 -15 0 -36 -10 -47 -21 -21 -21 -22 -27 -15 -194 l7 -171 -25
-14 c-48 -25 -61 -72 -61 -215 0 -71 3 -174 8 -228 l8 -98 -28 3 c-27 3 -28 5
-34 74 -6 80 -24 116 -69 139 -38 20 -38 46 0 63 58 26 86 136 46 181 -16 17
-31 21 -83 21 -59 0 -63 2 -63 23 0 12 9 36 20 52 23 34 27 128 9 198 -9 38
-7 48 15 92 50 100 89 285 102 485 4 57 11 109 16 115 5 5 18 25 28 43 11 18
28 32 39 32 10 0 24 7 31 15 10 12 8 26 -15 76 -27 60 -28 89 -2 89 7 0 25 13
40 28 21 21 27 38 27 70 0 31 4 42 15 42 23 0 19 66 -5 90 -25 25 -111 27
-210 5 -36 -8 -97 -14 -136 -15 -70 0 -73 1 -103 35 -37 42 -37 45 -11 78 12
15 20 40 20 62 0 32 -9 46 -64 104 l-65 66 30 17 c25 15 29 23 29 63 0 39 -5
51 -35 81 -35 34 -35 36 -19 63 14 24 15 45 6 175 -12 172 -21 191 -91 191
-72 0 -77 -14 -68 -164 9 -128 8 -131 -18 -189 -26 -59 -27 -61 -10 -96 12
-24 18 -64 19 -115 1 -66 5 -83 27 -117 l26 -39 -23 -18 c-17 -13 -24 -28 -24
-53 0 -19 -9 -56 -19 -82 -12 -30 -21 -82 -25 -142 -3 -61 -16 -135 -36 -205
-20 -71 -32 -143 -35 -203 -3 -51 -11 -105 -19 -120 -16 -32 -53 -389 -43
-416 4 -9 25 -25 48 -34 l41 -17 -4 -145 c-2 -119 -6 -151 -21 -173 -23 -36
-46 -34 -84 6 -77 80 -141 261 -173 487 -11 85 -24 165 -28 177 -4 12 -24 35
-46 52 -46 37 -103 42 -129 13 -20 -22 -23 -98 -4 -121 10 -13 11 -82 6 -317
l-5 -301 -42 -66 c-31 -50 -42 -77 -42 -107 0 -29 -4 -40 -15 -40 -12 0 -15
-13 -15 -60 0 -47 -3 -60 -15 -60 -13 0 -15 -18 -14 -112 1 -73 -4 -136 -14
-178 -9 -36 -17 -92 -18 -125 -1 -33 -7 -63 -13 -67 -14 -10 -164 -9 -278 1
-72 6 -94 13 -128 36 -33 23 -53 29 -97 29 -38 1 -57 -3 -63 -14 -5 -8 -13
-20 -18 -27 -5 -8 -121 -25 -316 -48 -329 -37 -370 -40 -361 -26 6 11 20 6
-335 112 -151 44 -277 83 -279 84 -1 2 15 9 38 15 39 10 41 12 41 50 0 33 -8
49 -47 93 -44 49 -53 55 -103 61 -30 4 -75 15 -100 25 -39 16 -46 23 -53 57
-8 43 -29 64 -63 64 -17 0 -23 8 -28 38 -3 20 -6 50 -6 66 0 16 -9 43 -20 61
-33 54 -65 69 -159 75 -94 6 -83 -4 -105 93 -5 23 -12 27 -40 27 l-33 0 -5 75
c-6 88 -21 111 -99 144 -48 21 -49 23 -49 65 0 27 -7 52 -19 68 -19 23 -19 24
5 63 47 78 19 148 -65 161 -23 4 -41 12 -41 18 0 6 13 28 29 48 27 36 28 39
17 104 -13 78 -37 104 -96 104 l-38 0 -7 53 c-8 61 -34 126 -60 147 -25 21
-89 19 -114 -4 -21 -19 -41 -93 -41 -154 0 -20 -6 -57 -14 -82 -12 -41 -16
-46 -52 -51 -84 -14 -104 -92 -64 -250 l20 -79 -22 -31 c-22 -30 -22 -30 -4
-77 33 -87 33 -88 -18 -135 -70 -65 -59 -118 33 -160 l46 -21 -45 -6 c-25 -4
-40 -8 -35 -9 6 -1 -50 -27 -122 -59 l-133 -57 -80 -107 -80 -108 -63 0 c-45
0 -74 -6 -102 -21 -35 -19 -54 -22 -158 -20 -138 3 -167 -7 -167 -62 -1 -17
-7 -43 -15 -57 -45 -78 -3 -118 220 -213 206 -87 322 -109 590 -112 99 -1 189
-4 200 -8 11 -4 32 -27 47 -51 34 -57 61 -74 137 -88 48 -9 73 -9 112 1 49 13
52 12 77 -12 21 -19 52 -30 130 -46 79 -16 113 -28 140 -49 58 -46 234 -108
324 -115 97 -8 245 -55 323 -103 68 -41 240 -117 360 -160 44 -15 96 -42 116
-58 55 -46 177 -116 391 -224 264 -133 325 -175 383 -263 51 -78 70 -89 153
-89 63 0 92 12 168 71 48 37 54 39 123 39 63 0 75 3 92 23 27 32 24 83 -6 111
-47 44 -268 96 -407 96 -66 0 -69 1 -79 28 -31 81 -121 128 -369 192 -209 54
-241 67 -320 136 -30 26 -84 60 -120 76 -36 16 -115 55 -177 86 -96 48 -122
57 -180 60 -51 4 -75 10 -98 28 -58 43 -173 80 -361 114 -77 14 -131 31 -205
65 -55 26 -118 49 -140 52 -32 5 -45 13 -67 44 -29 42 -34 43 -167 60 -81 9
-98 16 -171 60 -79 48 -84 49 -160 49 -154 0 -323 30 -413 72 l-46 22 38 4
c24 2 48 -3 62 -12 17 -11 49 -16 102 -16 125 0 259 -18 378 -50 204 -54 406
-92 457 -85 41 5 70 -3 220 -56 95 -33 191 -62 213 -64 22 -1 112 -30 199 -64
119 -45 173 -61 210 -61 42 0 56 -5 75 -26 69 -72 446 -204 583 -204 47 0 48
-1 73 -50 l25 -50 111 0 c101 0 113 -2 147 -25 28 -19 49 -25 93 -25 61 0 69
8 69 69 0 24 -54 85 -115 129 l-30 21 88 1 c49 0 86 -4 83 -8 -2 -4 18 -23 45
-42 31 -21 56 -47 65 -69 18 -42 38 -58 87 -66 31 -6 37 -11 37 -31 0 -15 -6
-24 -15 -24 -11 0 -15 -11 -15 -40 0 -33 7 -48 40 -84 37 -40 40 -48 40 -102
l1 -59 77 -52 c76 -52 79 -53 149 -53 l71 0 6 35 7 35 90 0 c105 0 129 10 187
75 38 43 42 45 95 45 88 0 105 12 131 93 4 14 18 17 81 17 84 0 140 18 149 48
6 17 19 20 124 25 136 7 193 22 317 85 89 45 91 46 215 52 98 5 136 11 175 29
45 20 74 23 295 31 240 8 245 9 260 31 41 64 50 68 124 59 55 -6 73 -13 93
-34 35 -38 79 -35 134 9 41 33 49 35 118 35 66 0 80 3 123 31 26 17 52 38 57
46 11 21 75 2 107 -33 23 -24 30 -26 82 -22 39 3 84 17 144 45 l87 41 229 4
230 3 93 -48 c112 -57 160 -61 263 -22 37 14 83 25 103 25 27 0 45 8 68 29 42
41 119 77 192 90 149 27 354 -51 444 -170 l27 -35 -34 -45 c-57 -73 -67 -99
-70 -179 l-3 -75 -93 -6 c-95 -6 -136 -17 -226 -63 -28 -14 -66 -26 -84 -26
-35 0 -57 -12 -122 -67 -38 -32 -42 -33 -130 -33 -115 0 -157 -18 -170 -71
l-9 -36 -76 -6 c-146 -12 -346 -80 -371 -126 -13 -24 -37 -27 -64 -6 -23 18
-126 20 -207 5 -30 -5 -103 -34 -163 -62 l-108 -53 5 -55 c5 -68 2 -77 -34
-96 -17 -8 -34 -26 -39 -39 -9 -23 -14 -25 -82 -25 -121 0 -301 -52 -463 -132
-44 -22 -130 -78 -192 -124 -120 -90 -212 -140 -278 -150 -33 -4 -85 -38 -249
-159 -208 -152 -208 -152 -274 -159 -62 -7 -69 -10 -124 -61 -63 -59 -72 -62
-102 -40 -26 20 -115 19 -143 0 -15 -10 -24 -30 -28 -63 -12 -87 -23 -111 -58
-120 -18 -5 -60 -7 -93 -4 -60 4 -63 3 -103 -33 -38 -35 -41 -41 -41 -91 l0
-54 -45 0 c-158 0 -345 -141 -850 -641 -256 -253 -327 -318 -354 -324 -25 -5
-94 -59 -249 -196 -118 -104 -218 -187 -222 -184 -4 2 -2 -20 5 -50 l13 -55
-59 0 c-56 0 -65 -3 -147 -59 -148 -100 -171 -139 -118 -201 30 -37 33 -58 9
-67 -45 -16 -193 -134 -193 -153 0 -10 161 -122 334 -233 l148 -95 136 121
c327 293 608 575 701 703 35 49 76 128 85 166 3 16 21 36 43 49 48 30 122 92
348 294 259 230 383 328 485 380 96 49 415 311 590 484 106 105 200 221 200
247 0 14 27 20 139 29 41 3 80 10 86 15 6 5 75 43 152 83 77 41 185 106 240
145 55 40 144 92 199 118 239 110 416 246 444 341 12 38 16 41 72 57 80 22
182 75 436 223 274 160 382 211 572 268 173 52 282 96 471 191 199 99 256 115
434 123 l150 6 3 27 3 26 112 6 c237 12 256 12 261 -1 3 -7 -11 -29 -32 -48
-32 -29 -44 -35 -87 -35 -80 -1 -198 -26 -264 -56 -61 -27 -95 -60 -102 -99
-5 -23 -37 -32 -122 -34 -54 -1 -64 -6 -160 -69 -56 -38 -138 -88 -182 -112
-157 -85 -251 -164 -281 -236 -15 -35 -25 -36 -70 -7 -19 12 -30 11 -84 -7
-118 -40 -413 -198 -671 -361 -84 -53 -119 -69 -169 -78 -87 -15 -153 -49
-241 -124 -99 -84 -146 -115 -259 -172 -139 -69 -169 -93 -340 -260 -189 -184
-215 -205 -264 -205 -47 0 -146 -33 -199 -67 -58 -37 -138 -114 -220 -213 -39
-47 -109 -124 -157 -171 -97 -98 -318 -339 -430 -471 -63 -75 -78 -88 -104
-88 -34 0 -58 -14 -134 -79 -113 -96 -456 -499 -507 -596 -16 -29 -35 -47 -73
-65 -29 -14 -72 -46 -96 -71 -24 -25 -87 -76 -139 -112 -67 -47 -126 -101
-197 -179 -56 -62 -119 -129 -139 -148 -67 -63 -161 -172 -161 -186 0 -15 110
-69 365 -179 245 -105 238 -103 286 -69 69 47 196 218 264 354 58 115 131 217
212 298 72 72 73 73 73 125 0 52 1 54 73 129 40 43 95 88 124 103 38 20 62 43
89 84 20 31 89 108 154 171 122 120 227 246 260 310 22 43 77 92 240 210 109
79 195 152 337 284 79 74 112 138 120 233 l6 69 96 54 c275 152 492 304 660
463 134 126 244 202 461 317 172 92 236 133 325 210 60 51 84 64 652 341 l181
89 90 112 c49 62 96 119 104 126 9 7 42 19 74 28 92 23 229 96 346 184 l107
80 101 0 c86 0 108 3 148 24 26 13 72 31 102 41 93 30 150 63 172 100 18 32
24 35 68 35 41 0 52 4 73 30 14 16 28 43 32 60 6 29 8 30 63 30 42 0 70 7 104
25 26 14 49 25 52 25 3 0 11 -19 18 -42 23 -76 122 -148 205 -148 13 0 22 -4
19 -9 -3 -4 21 -34 53 -64 40 -39 55 -59 47 -65 -6 -5 -60 -35 -119 -68 l-109
-59 5 -61 5 -62 -60 -20 c-127 -44 -323 -177 -367 -249 -17 -28 -31 -41 -41
-37 -8 3 -37 8 -65 11 -44 4 -56 1 -96 -26 -25 -17 -91 -82 -146 -144 -55 -63
-152 -159 -216 -215 -126 -111 -156 -145 -210 -242 -42 -74 -191 -220 -347
-339 -206 -157 -310 -258 -429 -419 -78 -104 -144 -164 -232 -207 -126 -62
-274 -183 -369 -302 -80 -99 -107 -147 -126 -225 l-16 -65 -53 -12 c-30 -7
-72 -25 -94 -42 -51 -37 -131 -149 -196 -275 -45 -88 -54 -98 -89 -110 -21 -7
-52 -25 -68 -41 -99 -94 -320 -481 -349 -610 l-12 -53 -64 0 c-44 0 -76 -6
-102 -20 -55 -28 -134 -120 -178 -209 -34 -69 -38 -85 -41 -168 l-4 -93 -34
-16 c-104 -49 -271 -269 -328 -431 l-15 -42 42 -6 c77 -10 390 -25 544 -25
l153 0 40 52 c85 106 169 322 185 471 7 66 8 67 36 67 37 0 93 50 169 150 80
106 192 276 225 340 46 92 127 209 229 330 53 63 131 167 173 230 42 63 105
159 141 214 42 64 114 149 206 245 232 241 336 394 336 495 l0 51 48 22 c95
44 264 209 412 404 39 50 91 101 157 151 123 95 144 118 233 251 46 69 86 117
113 136 52 36 363 352 439 446 65 81 93 105 238 202 219 147 270 203 270 300
l0 53 48 0 c43 0 55 6 113 51 35 28 87 73 114 99 43 41 57 48 102 53 63 7 100
25 178 89 61 49 84 48 46 -3 -41 -56 -15 -129 47 -129 15 0 44 9 65 20 53 29
74 25 145 -22 58 -40 63 -45 58 -73 -8 -59 -166 -408 -220 -490 -30 -44 -64
-100 -76 -125 -12 -25 -49 -70 -82 -102 -49 -45 -63 -66 -73 -104 -10 -41 -16
-50 -41 -55 -78 -16 -110 -49 -150 -156 -35 -94 -48 -115 -135 -237 -43 -59
-93 -138 -110 -175 -63 -135 -73 -152 -146 -238 -41 -48 -105 -131 -143 -183
-61 -86 -121 -149 -223 -236 -33 -28 -37 -36 -37 -78 0 -67 -35 -188 -61 -206
-88 -64 -112 -96 -123 -169 -4 -24 -23 -74 -44 -110 -20 -36 -37 -72 -37 -79
0 -8 -18 -26 -40 -41 -48 -32 -65 -62 -65 -116 0 -37 -3 -42 -42 -60 -54 -26
-77 -67 -86 -153 -7 -59 -15 -80 -58 -148 -116 -181 -174 -302 -174 -360 0
-18 -18 -42 -60 -82 -57 -55 -60 -60 -60 -105 0 -33 7 -57 22 -77 24 -33 23
-35 -24 -58 -27 -14 -37 -29 -58 -86 -14 -38 -42 -87 -62 -111 -29 -33 -38
-52 -38 -80 0 -20 -7 -49 -15 -65 -9 -17 -13 -30 -11 -30 23 0 358 132 523
207 120 54 123 56 123 87 0 17 9 65 21 106 18 68 49 131 201 415 61 114 97
226 104 324 7 86 14 101 165 326 175 264 222 358 324 650 74 212 126 316 230
459 48 66 117 181 156 257 87 172 206 369 359 598 246 368 430 725 430 834 0
20 -10 47 -25 67 -14 19 -21 38 -17 42 5 5 38 11 74 15 92 8 123 -11 132 -80
5 -44 11 -56 46 -87 37 -31 42 -41 47 -91 5 -55 5 -56 -30 -77 -60 -35 -69
-58 -79 -209 -10 -157 -20 -187 -96 -280 -28 -35 -57 -85 -67 -115 -21 -63
-29 -74 -76 -104 -32 -20 -41 -34 -63 -101 -13 -43 -45 -113 -69 -156 -25 -43
-59 -124 -77 -180 -18 -56 -46 -135 -62 -175 -18 -44 -28 -81 -24 -95 9 -38
-13 -149 -39 -192 -13 -22 -55 -70 -93 -106 -83 -79 -102 -111 -109 -188 -3
-32 -13 -65 -23 -76 -9 -11 -63 -85 -120 -164 l-104 -144 17 -45 16 -46 -40
-44 c-39 -42 -41 -45 -37 -103 3 -58 3 -59 -28 -69 -35 -12 -89 -61 -110 -101
-7 -15 -25 -70 -38 -123 -27 -101 -37 -126 -92 -218 -33 -54 -34 -59 -28 -126
6 -68 6 -70 -35 -140 -22 -39 -53 -84 -67 -101 -14 -17 -22 -31 -18 -31 15 0
379 248 521 354 160 120 160 120 189 281 18 98 88 343 128 442 29 74 70 150
158 295 76 124 125 250 132 338 4 50 13 75 47 132 55 91 78 159 79 230 0 51 7
70 57 160 96 175 182 361 224 490 22 68 59 157 81 198 23 41 56 102 74 135 75
139 96 247 74 394 -8 56 -6 71 12 113 l20 48 106 0 106 0 47 46 48 47 14 -35
c8 -20 20 -39 26 -42 19 -12 12 -42 -18 -79 -27 -34 -29 -43 -34 -159 -6 -146
-33 -259 -113 -492 -31 -89 -83 -242 -116 -341 -33 -99 -93 -275 -133 -391
-91 -262 -147 -458 -171 -592 -14 -84 -22 -105 -38 -114 -29 -14 -52 -44 -85
-108 -39 -77 -93 -250 -77 -250 10 0 261 287 371 425 188 235 211 271 234 360
11 44 30 107 42 140 19 54 20 73 15 180 l-7 120 124 480 c150 578 177 693 177
747 0 27 9 55 26 83 22 34 37 45 90 64 53 19 69 21 101 12 90 -25 153 -1 286
110 70 58 67 50 83 276 8 114 -1 148 -46 186 -15 13 -46 56 -70 96 -38 63 -43
80 -41 124 2 57 -13 104 -38 111 -9 2 -38 7 -66 11 -89 12 -94 15 -175 116
-76 92 -80 100 -80 147 0 39 -5 53 -25 72 -14 13 -25 26 -25 29 1 3 16 23 35
44 33 38 34 38 72 27 29 -9 49 -9 81 -1 46 13 62 34 62 80 0 33 34 76 50 66 6
-4 10 -15 10 -25 0 -10 16 -49 35 -86 55 -105 65 -151 58 -260 -5 -84 -4 -96
13 -115 31 -34 64 -46 149 -53 44 -3 111 -13 149 -21 38 -8 71 -14 72 -12 2 1
12 65 23 142 49 342 80 800 62 932 -13 92 -32 122 -90 143 -48 17 -55 32 -52
124 6 171 4 206 -13 250 -15 39 -22 46 -52 52 -52 10 -123 -1 -153 -23 -38
-29 -39 -69 0 -132 18 -28 30 -53 28 -55 -2 -2 -33 23 -68 56 -58 53 -63 59
-43 65 18 4 22 13 22 45 0 54 -13 75 -55 82 -38 7 -43 17 -20 36 18 15 19 81
1 129 -11 31 -10 35 17 62 27 28 29 32 22 88 -6 54 -5 60 14 71 24 12 28 54
10 94 -10 20 -21 26 -65 32 -58 7 -61 11 -40 52 8 17 15 79 19 174 l5 146 -27
25 c-17 16 -44 27 -76 32 -27 3 -60 9 -72 12 -18 4 -25 -1 -32 -20 -9 -24 -13
-25 -64 -20 -51 5 -56 4 -71 -20 -19 -28 -16 -51 19 -137 12 -30 25 -69 28
-86 5 -29 3 -31 -31 -40 -33 -8 -37 -13 -40 -46 -2 -29 5 -48 33 -90 l37 -53
-36 -6 c-75 -12 -88 -64 -32 -126 30 -34 56 -74 56 -86 0 -2 -18 -7 -41 -11
-47 -8 -140 -53 -220 -106 -53 -37 -57 -38 -102 -27 -61 14 -134 -3 -200 -45
-46 -30 -48 -30 -62 -12 -8 11 -15 22 -15 26 0 4 -14 15 -32 24 -57 30 -284 2
-378 -46 -22 -11 -42 -20 -45 -20 -3 0 -5 60 -5 133 0 114 -11 242 -36 440 -8
59 -27 81 -65 73 -51 -10 -66 16 -72 122 -4 91 -4 94 19 102 26 10 32 48 14
94 -9 25 -12 26 -94 26 -47 0 -88 4 -91 10 -3 5 16 47 43 93 l48 83 -8 144
c-6 95 -13 152 -23 166 -7 12 -41 41 -74 65 -64 46 -82 78 -60 105 18 22 12
74 -11 99 -19 21 -19 21 5 90 44 126 27 165 -71 165 l-56 0 7 40 c14 82 -29
208 -105 309 -44 58 -53 110 -25 147 8 11 14 42 15 75 0 53 1 56 34 72 33 15
34 17 26 54 -14 61 -48 83 -130 83 -38 0 -72 -5 -75 -10z m85 -2052 c-1 -22
-40 -102 -62 -125 -28 -30 -87 -31 -113 -3 -23 26 -12 39 41 47 29 5 49 17 77
50 39 43 57 53 57 31z m-3212 -304 l229 -245 7 -57 c4 -31 9 -75 13 -96 l6
-39 -341 5 -341 5 -82 -65 c-111 -87 -239 -211 -269 -261 -24 -39 -50 -54 -50
-28 0 6 9 30 19 53 16 36 17 52 9 142 l-9 101 281 366 c155 201 285 365 289
365 5 0 112 -111 239 -246z m3119 -75 c-6 -69 -67 -146 -67 -85 0 13 -6 29
-14 35 -11 9 -8 17 20 45 19 19 37 49 41 67 6 32 6 32 15 8 6 -13 8 -45 5 -70z
m-58 -153 c10 -11 9 -24 0 -58 -16 -56 -32 -68 -91 -68 -41 0 -48 3 -48 20 0
12 -13 28 -31 39 -30 18 -30 20 -11 30 11 6 43 11 71 11 59 0 81 7 81 26 0 18
14 18 29 0z m-883 -117 l28 -41 53 7 c45 5 62 2 110 -20 l57 -26 36 36 37 36
41 -16 c23 -9 53 -32 67 -51 30 -40 37 -41 97 -14 36 16 52 18 79 10 57 -17
97 -13 109 11 9 16 14 18 26 8 20 -16 18 -41 -8 -94 -21 -43 -24 -45 -64 -45
-24 0 -55 5 -70 10 -22 9 -37 7 -75 -10 -66 -28 -84 -26 -108 14 -14 22 -38
40 -71 54 l-49 20 -36 -40 -37 -40 -60 27 c-52 23 -69 26 -117 21 l-56 -6 -32
40 c-27 35 -30 47 -26 83 6 41 18 67 33 67 4 0 20 -18 36 -41z m1472 -171 l33
-33 196 3 195 4 29 -28 c24 -23 29 -34 24 -59 -16 -77 -22 -80 -63 -34 -35 39
-83 45 -227 31 -124 -12 -182 -4 -208 32 -21 30 -48 33 -101 11 -31 -13 -46
-14 -96 -3 -57 11 -61 11 -84 -11 l-25 -24 -12 26 c-10 22 -8 31 17 66 32 45
44 48 121 30 39 -9 54 -8 83 4 55 24 80 20 118 -15z m-3970 -61 c114 -68 297
-249 507 -502 104 -125 228 -286 224 -289 -2 -2 -46 0 -96 5 -80 8 -136 5
-417 -26 l-324 -36 -310 8 c-171 5 -314 12 -317 15 -4 3 9 42 28 86 103 238
356 573 546 724 81 65 77 64 159 15z m-1012 -75 c17 -11 44 -107 44 -155 0
-24 -3 -65 -6 -91 l-7 -46 -84 0 c-58 0 -85 4 -88 13 -2 6 -8 68 -13 136 -6
99 -5 127 6 138 14 14 129 18 148 5z m4647 -22 c3 -11 18 -25 33 -30 43 -17
12 -30 -68 -30 -58 0 -69 -3 -78 -21 -16 -29 -44 -6 -35 30 14 57 32 71 89 71
45 0 54 -3 59 -20z m-122 -166 c5 -7 -2 -19 -21 -33 -17 -12 -36 -36 -44 -54
l-13 -32 -7 32 c-10 43 9 97 42 124 l27 21 3 -24 c2 -12 8 -28 13 -34z m-7
-243 c25 -27 12 -41 -35 -41 -30 0 -50 -8 -79 -31 -45 -37 -67 -32 -45 10 37
72 121 104 159 62z m-43 -207 c121 -36 199 -94 199 -147 0 -19 12 -45 34 -72
34 -41 35 -42 89 -37 52 4 55 3 75 -29 27 -44 67 -81 118 -109 36 -19 42 -28
47 -64 5 -36 3 -44 -21 -63 -15 -12 -37 -22 -49 -23 -19 0 -23 5 -23 29 0 46
-9 59 -61 88 -30 16 -64 46 -85 75 l-34 49 -49 -7 c-46 -6 -48 -5 -78 32 -17
22 -33 49 -37 61 -18 58 -201 180 -250 167 -23 -5 -26 -3 -26 19 0 48 55 59
151 31z m-239 -31 c44 -24 48 -29 43 -53 -4 -18 -1 -31 10 -40 16 -13 20 -30
7 -30 -5 0 -39 18 -76 41 -49 30 -74 39 -92 35 -41 -11 -31 30 14 53 20 11 39
20 41 21 2 0 25 -12 53 -27z m-152 -62 c0 -6 -5 -13 -10 -16 -6 -4 -8 -15 -5
-26 6 -17 1 -19 -40 -19 -25 0 -60 -7 -76 -16 l-30 -15 15 29 c16 30 48 56 81
65 34 8 65 7 65 -2z m-5440 -81 c28 -22 35 -34 34 -61 0 -19 -4 -42 -8 -51 -6
-12 0 -24 18 -42 26 -23 26 -26 16 -88 -5 -36 -14 -78 -20 -94 -10 -30 -21
-103 -43 -298 -12 -102 -12 -111 5 -128 10 -10 23 -18 28 -18 12 0 13 -67 1
-74 -10 -7 -19 -53 -30 -156 -8 -83 -18 -113 -35 -107 -15 5 -20 82 -7 117 7
22 5 37 -9 65 -10 20 -21 54 -25 76 -4 23 -12 39 -21 39 -17 0 -21 20 -28 132
-7 104 -16 129 -50 147 -23 13 -26 20 -26 70 0 31 9 94 20 141 11 47 20 102
20 124 0 47 47 205 68 229 19 21 44 15 92 -23z m1225 -51 c4 -5 11 -75 17
-155 8 -112 8 -147 -2 -159 -16 -19 -165 -21 -177 -2 -9 13 -31 86 -40 130 -3
15 -2 66 2 112 l7 85 93 0 c55 0 97 -4 100 -11z m4001 -50 c24 -14 34 -28 34
-45 0 -30 -18 -31 -64 -3 -44 26 -68 19 -97 -27 -25 -42 -37 -39 -15 4 25 49
66 92 88 92 11 0 36 -9 54 -21z m-2707 -41 c4 -13 13 -93 20 -178 6 -85 14
-183 18 -217 l6 -63 -36 -15 c-51 -21 -209 -21 -242 1 -14 9 -25 25 -25 35 0
10 -12 53 -26 96 -24 72 -25 86 -19 188 4 61 7 125 8 143 l0 32 144 0 c140 0
144 -1 152 -22z m2321 -173 c31 -28 69 -50 101 -59 66 -20 79 -31 79 -70 0
-20 11 -45 31 -69 29 -35 34 -37 89 -37 l58 0 31 -48 c18 -29 47 -57 73 -72
69 -37 78 -49 78 -97 0 -30 -4 -43 -14 -43 -8 0 -16 -6 -19 -14 -3 -7 -17 -16
-30 -18 -24 -5 -26 -2 -32 44 -7 46 -10 50 -56 74 -33 16 -62 42 -86 75 l-37
51 -47 -5 c-46 -6 -50 -4 -79 31 -16 20 -30 47 -30 60 0 41 -18 60 -71 73 -29
8 -64 25 -78 39 -45 45 -79 63 -107 56 -23 -6 -25 -4 -22 21 2 22 10 30 43 39
62 19 71 17 125 -31z m-253 -10 c37 -22 42 -29 37 -51 -4 -17 -1 -31 11 -44
17 -19 17 -20 1 -20 -10 0 -44 16 -77 36 -40 25 -66 35 -83 32 -49 -10 -37 29
19 60 30 17 44 15 92 -13z m511 -31 c30 -21 30 -49 0 -39 -13 4 -38 9 -56 12
-48 8 -32 31 28 42 3 1 16 -6 28 -15z m-668 -34 c0 -5 -5 -10 -11 -10 -7 0 -9
-10 -7 -25 5 -23 3 -24 -31 -19 -25 3 -48 -1 -73 -14 -21 -11 -38 -17 -38 -13
0 15 34 54 64 72 33 20 96 26 96 9z"/>
<path d="M10107 10467 c-16 -11 -16 -23 -6 -142 6 -72 17 -133 23 -137 6 -4
45 -8 87 -8 l76 0 7 65 c7 74 -17 202 -42 223 -20 16 -123 16 -145 -1z"/>
<path d="M9945 9519 c-11 -16 5 -262 17 -276 7 -9 38 -13 88 -13 l77 0 7 46
c10 76 7 126 -13 189 l-19 60 -75 3 c-49 2 -78 -1 -82 -9z"/>
<path d="M356 12391 c-3 -4 -15 -45 -27 -91 -32 -122 -32 -249 0 -310 59 -112
142 -180 396 -325 195 -112 245 -146 304 -210 60 -65 81 -116 81 -197 0 -54
-3 -68 -15 -68 -8 0 -190 43 -403 96 -247 62 -392 102 -400 112 -7 9 -20 40
-29 70 -18 57 -28 66 -83 77 l-35 6 -69 -278 c-38 -153 -69 -282 -70 -287 0
-5 19 -14 44 -21 l45 -11 56 48 c30 26 62 48 70 48 8 0 442 -106 965 -237
l951 -237 29 -79 c16 -43 33 -82 39 -87 6 -5 29 -12 50 -15 l40 -7 74 299 c40
164 74 302 75 307 0 5 -19 15 -43 22 l-44 14 -70 -62 -69 -62 -462 115 -461
116 2 27 c3 48 31 130 58 171 33 50 85 88 155 112 61 20 181 22 650 13 236 -5
247 -4 300 17 63 26 122 79 151 136 42 81 65 282 37 304 -11 9 -95 33 -112 33
-3 0 -12 -15 -20 -33 -7 -18 -27 -45 -45 -59 -56 -48 -108 -52 -459 -40 -335
12 -432 7 -539 -26 -78 -24 -147 -73 -175 -122 -25 -44 -38 -51 -38 -21 0 31
-102 133 -198 199 -48 33 -171 109 -274 171 -264 157 -331 225 -314 315 l6 33
-60 16 c-33 8 -62 12 -64 8z"/>
<path d="M18753 12159 c-27 -8 -34 -17 -52 -72 -12 -34 -25 -67 -29 -73 -4 -6
-434 -117 -957 -248 -522 -130 -957 -239 -966 -242 -10 -2 -41 19 -81 56 -70
64 -74 65 -129 50 l-37 -10 153 -611 c84 -335 155 -612 157 -614 5 -5 491 116
501 125 4 4 1 37 -9 73 l-16 66 -67 6 c-36 4 -113 12 -171 19 l-105 11 -69
273 c-38 150 -66 275 -62 279 3 4 16 -3 29 -15 14 -13 36 -22 55 -22 18 0 194
41 392 90 198 50 364 90 369 90 8 0 81 -272 81 -303 0 -8 -33 -42 -74 -76
l-74 -62 10 -37 c5 -20 11 -42 13 -48 2 -8 91 10 275 56 149 37 273 70 275 71
2 2 -1 25 -7 50 l-11 46 -101 19 -101 19 -37 140 c-20 77 -37 149 -37 160 -1
18 37 30 413 124 228 56 422 104 432 104 14 2 26 -33 71 -212 30 -118 52 -219
50 -225 -3 -6 -67 -47 -143 -90 -77 -44 -141 -81 -143 -83 -6 -4 31 -163 38
-163 3 0 120 28 258 62 204 51 252 66 248 78 -2 8 -68 270 -146 583 -84 338
-146 567 -153 566 -6 0 -25 -5 -43 -10z"/>
<path d="M7505 10589 c-104 -60 -240 -135 -301 -166 -107 -53 -117 -56 -235
-69 -68 -8 -161 -23 -206 -34 -45 -11 -104 -20 -130 -20 -54 0 -213 31 -437
84 -225 53 -247 54 -331 13 -78 -38 -172 -100 -385 -257 -80 -59 -159 -114
-176 -123 -17 -9 -95 -28 -174 -42 -85 -15 -161 -35 -189 -49 -26 -13 -80 -34
-121 -46 -41 -13 -92 -31 -112 -42 -33 -16 -38 -23 -38 -52 0 -55 19 -66 116
-66 l84 0 0 -44 c0 -28 6 -48 17 -57 22 -19 49 -84 58 -139 4 -25 12 -53 17
-63 7 -13 3 -25 -16 -48 -33 -39 -34 -81 -1 -107 17 -14 48 -21 111 -26 82 -7
88 -6 125 18 33 22 50 26 118 26 83 0 103 -8 116 -50 5 -16 15 -20 54 -20 26
0 56 -7 67 -15 47 -36 101 -17 254 89 l94 66 14 -45 c13 -45 48 -75 88 -75 15
0 15 -2 -2 -21 -10 -12 -68 -59 -129 -104 -180 -135 -234 -201 -235 -291 0
-74 67 -108 124 -63 15 12 49 54 75 93 46 68 111 136 131 136 4 0 15 3 24 6
25 9 20 -20 -9 -54 -29 -34 -31 -58 -10 -89 22 -32 75 -43 199 -43 91 0 117
-4 153 -21 64 -31 133 -20 211 32 52 35 66 40 108 37 43 -3 51 -7 70 -38 44
-70 62 -83 106 -77 53 7 106 51 141 118 29 54 29 55 22 182 -7 125 -6 128 19
171 17 30 26 59 26 89 0 66 -27 81 -112 64 -37 -8 -38 -7 -38 20 0 16 7 39 16
51 23 33 10 249 -17 275 -30 29 -22 65 39 182 l58 110 45 5 c61 7 125 47 183
115 56 66 64 69 216 101 63 13 125 26 137 29 30 7 70 87 117 232 31 97 57 223
45 223 -2 0 -89 -50 -194 -111z"/>
<path d="M11281 8947 c-8 -10 -8 -45 0 -128 15 -174 6 -159 98 -159 l79 0 7
65 c4 36 5 78 1 93 -13 56 -31 117 -39 130 -11 17 -131 16 -146 -1z"/>
<path d="M2818 8584 c-2 -5 4 -69 15 -141 l20 -133 34 0 c50 0 99 26 113 61
12 27 16 29 44 23 17 -3 48 -15 68 -25 29 -15 59 -19 132 -19 86 0 95 -2 101
-20 15 -47 131 -89 372 -135 221 -42 320 -78 499 -181 101 -58 117 -64 168
-64 50 0 73 -8 199 -71 116 -58 155 -84 213 -139 80 -76 226 -175 359 -244 76
-40 108 -50 205 -67 153 -25 194 -42 263 -108 54 -51 61 -55 116 -59 58 -4 59
-4 99 -62 24 -33 55 -64 75 -74 60 -28 187 -18 209 17 4 7 8 30 8 53 0 37 -6
46 -57 96 -52 49 -168 132 -277 198 -30 18 -60 25 -127 30 -88 6 -88 7 -161
62 -143 108 -162 118 -220 118 -112 0 -170 35 -218 129 -31 62 -87 119 -147
149 -21 11 -78 27 -128 37 -49 9 -115 27 -145 40 -30 13 -134 45 -230 71 -172
47 -176 48 -225 96 -45 43 -55 48 -96 48 -34 0 -55 7 -85 29 -35 26 -49 29
-126 32 -73 3 -90 7 -110 27 -22 20 -34 22 -140 22 l-115 0 -9 31 c-5 18 -22
41 -37 53 -25 19 -43 21 -150 21 -96 1 -131 5 -162 19 -131 59 -333 106 -347
80z"/>
<path d="M2892 8233 c-18 -4 -23 -10 -19 -26 3 -12 13 -59 22 -104 l18 -82 41
-6 c22 -3 70 -9 105 -13 62 -7 65 -8 73 -38 13 -53 66 -89 185 -127 60 -19
161 -62 225 -95 64 -33 161 -74 215 -91 102 -31 175 -72 276 -155 134 -109
255 -166 351 -166 38 0 46 -5 75 -40 18 -22 71 -69 118 -104 46 -35 103 -88
125 -117 56 -76 116 -136 154 -154 52 -24 127 -20 163 11 l30 25 108 -26 c62
-16 134 -41 170 -61 44 -24 74 -34 106 -34 54 0 82 20 127 90 27 42 31 56 25
87 -9 50 -50 87 -119 107 -73 22 -113 59 -122 115 -6 37 -12 45 -53 65 -64 33
-305 135 -370 157 -69 24 -87 24 -108 -1 -20 -23 -44 -25 -81 -6 -15 7 -49 17
-77 20 -27 4 -69 18 -91 31 -41 24 -41 25 -31 62 6 26 6 51 -2 80 -11 39 -14
42 -54 47 -23 2 -80 9 -126 14 -78 9 -88 13 -159 63 -69 48 -83 54 -139 57
-48 3 -69 0 -89 -13 -17 -11 -29 -13 -33 -7 -3 6 -70 20 -148 32 -140 22 -142
23 -148 50 -13 57 -75 90 -171 90 -28 0 -72 3 -98 6 l-46 7 0 43 c0 37 -5 47
-33 68 -49 37 -162 90 -255 120 -82 26 -95 27 -140 19z"/>
<path d="M11545 8205 c-36 -22 -51 -24 -143 -25 l-102 0 -12 -45 -12 -45 -135
0 c-159 0 -463 -28 -473 -43 -3 -6 -9 -30 -13 -53 l-6 -43 -92 -4 c-66 -3
-135 -16 -242 -46 -89 -24 -172 -41 -204 -41 -42 0 -60 -5 -77 -21 -25 -24
-79 -38 -144 -39 -74 -1 -158 -25 -184 -53 -25 -27 -33 -30 -119 -47 -44 -9
-68 -21 -95 -47 -56 -53 -255 -143 -316 -143 -17 0 -28 -11 -46 -51 -19 -40
-34 -56 -70 -74 -39 -19 -53 -21 -100 -14 -143 20 -191 7 -363 -104 -121 -79
-158 -96 -260 -123 -159 -43 -328 -119 -452 -205 -97 -67 -136 -78 -321 -94
-231 -19 -239 -23 -580 -246 -164 -108 -184 -119 -226 -119 -152 0 -331 -125
-413 -287 -45 -88 -72 -113 -167 -149 -92 -34 -333 -166 -459 -249 -112 -74
-227 -179 -284 -258 -34 -47 -46 -56 -80 -61 -121 -19 -235 -86 -289 -170 -30
-47 -45 -60 -100 -85 -65 -29 -86 -52 -86 -91 0 -40 -58 -85 -125 -98 -33 -7
-75 -21 -93 -32 -32 -20 -38 -30 -62 -104 l-12 -39 128 -129 c120 -120 336
-320 352 -325 4 -2 32 36 62 83 83 130 139 193 272 311 67 59 161 145 209 190
64 60 108 91 166 118 133 63 429 269 585 408 68 60 73 69 104 184 1 6 85 73
186 149 101 75 212 162 248 193 113 99 153 128 255 189 365 217 439 268 478
328 18 27 30 34 67 39 76 11 129 32 198 82 100 72 110 77 205 108 48 15 156
61 240 102 84 41 249 115 367 164 254 106 484 217 521 251 17 16 49 29 90 37
155 31 446 153 522 220 29 26 63 40 157 66 78 21 129 40 145 55 18 17 42 24
97 30 40 5 123 24 183 43 61 19 142 38 180 42 116 11 195 33 283 80 77 41 90
45 156 45 87 0 244 23 308 45 26 9 59 30 72 46 24 28 28 29 113 29 104 0 145
19 170 78 13 32 13 40 1 62 -30 54 -99 64 -163 25z"/>
<path d="M10232 8189 c-155 -12 -226 -25 -287 -53 -38 -17 -81 -27 -146 -32
-95 -7 -106 -12 -139 -63 -15 -22 -37 -27 -295 -67 -154 -24 -285 -42 -291
-40 -6 2 -15 -15 -22 -38 l-11 -41 -168 -34 c-127 -26 -175 -40 -196 -58 -25
-20 -39 -23 -113 -23 l-84 0 -59 -54 c-67 -62 -112 -76 -241 -76 -109 0 -178
-16 -212 -50 -15 -16 -28 -37 -28 -48 0 -29 -240 -127 -330 -135 -36 -3 -96
-17 -133 -32 -39 -14 -101 -28 -145 -32 -106 -8 -112 -12 -112 -78 l0 -55
-102 0 -101 0 -37 -39 -37 -38 -74 4 c-64 4 -85 1 -154 -25 -44 -16 -111 -32
-150 -36 -61 -6 -74 -11 -105 -41 -34 -33 -36 -33 -80 -23 -68 16 -146 -5
-282 -75 l-118 -60 0 -47 0 -46 -87 -49 -88 -50 -125 0 c-173 0 -198 -12 -378
-187 -169 -164 -248 -207 -380 -208 -41 0 -57 -11 -302 -205 -214 -169 -264
-205 -290 -205 -18 0 -64 -16 -104 -35 -46 -23 -113 -44 -190 -60 -66 -13
-123 -28 -127 -32 -8 -9 149 -232 295 -418 l99 -126 29 53 c65 121 292 392
363 433 22 13 96 40 165 60 137 41 220 81 322 156 101 75 138 121 138 169 0
36 3 40 24 40 30 0 157 64 228 116 29 21 85 68 123 105 56 53 78 67 110 72 22
3 117 44 210 91 94 47 217 103 275 125 58 23 129 57 158 76 48 33 52 39 52 74
l0 38 91 12 c113 15 249 58 354 112 159 83 192 97 305 134 130 42 180 68 229
118 18 20 39 33 45 31 6 -2 126 29 266 69 211 62 299 93 507 183 139 60 253
114 253 119 0 6 39 17 86 23 189 28 421 101 465 148 20 21 31 24 99 24 50 0
83 5 97 15 11 8 86 28 165 45 80 17 207 52 284 79 130 45 140 51 159 85 l20
36 218 0 217 0 10 25 c8 21 16 25 53 25 64 0 79 15 75 75 l-3 50 -80 1 c-44 1
-127 -2 -183 -7z"/>
<path d="M2986 7722 c16 -69 106 -358 114 -365 4 -5 50 -18 101 -29 82 -18 97
-25 122 -54 37 -45 181 -152 237 -177 37 -17 57 -19 131 -14 l87 7 13 -32 c35
-84 227 -283 361 -375 60 -41 77 -48 132 -51 48 -3 66 0 79 12 27 28 62 18
140 -39 92 -68 146 -92 218 -101 l55 -6 86 81 c98 93 115 123 99 174 -14 41
-45 57 -112 57 -48 0 -50 1 -71 44 -19 39 -25 44 -62 48 -23 3 -92 20 -153 38
-99 29 -118 38 -175 86 -55 47 -68 54 -107 54 -41 0 -49 5 -125 78 -204 195
-455 382 -512 382 -12 0 -33 -9 -48 -21 -18 -14 -33 -18 -48 -14 -13 4 -109
49 -214 100 -105 52 -228 105 -273 118 l-81 25 6 -26z"/>
<path d="M12828 7677 c-194 -99 -395 -225 -487 -304 -60 -52 -115 -87 -190
-124 -122 -59 -200 -115 -226 -163 -15 -27 -26 -35 -56 -39 -55 -7 -175 -94
-310 -224 -83 -81 -125 -115 -148 -119 -18 -4 -39 -17 -47 -29 -11 -17 -28
-25 -69 -30 -91 -11 -169 -57 -270 -160 -49 -50 -101 -106 -114 -124 -14 -19
-41 -40 -60 -48 -20 -9 -75 -42 -122 -75 l-86 -59 -46 12 c-44 11 -51 9 -100
-15 -73 -38 -161 -109 -179 -147 -15 -30 -13 -64 7 -111 6 -15 2 -18 -23 -18
-16 0 -61 -16 -101 -36 -166 -83 -386 -350 -407 -496 -3 -24 -22 -67 -40 -96
-32 -48 -37 -52 -62 -45 -15 5 -52 8 -82 8 -86 0 -146 -42 -352 -244 -177
-174 -178 -175 -178 -219 0 -37 -6 -51 -44 -95 -95 -113 -254 -374 -296 -488
l-22 -59 -53 0 c-63 0 -100 -24 -193 -125 -126 -138 -235 -319 -247 -411 -4
-27 -11 -61 -17 -76 -13 -36 -110 -127 -233 -220 -174 -131 -241 -223 -218
-302 6 -21 17 -32 38 -38 89 -24 338 -80 459 -102 133 -25 140 -25 159 -9 26
23 274 399 416 629 105 172 111 185 111 235 0 49 5 62 54 134 30 44 94 127
142 185 48 58 119 148 157 200 39 52 121 156 182 230 129 156 216 271 239 317
9 18 16 50 16 72 0 30 4 41 19 46 11 3 32 26 48 51 28 44 32 47 182 118 32 14
197 163 286 257 39 41 106 100 150 131 112 80 192 161 289 292 87 118 126 155
241 228 76 49 158 125 247 229 33 38 80 80 110 97 65 37 144 99 279 220 57 52
169 137 249 190 104 69 179 129 265 212 336 323 318 308 381 326 46 13 69 27
104 64 25 26 88 74 140 107 52 34 118 76 147 96 28 19 80 44 114 56 78 26 109
54 109 97 0 44 -38 74 -95 74 -33 0 -72 -15 -167 -63z"/>
<path d="M13932 7470 c-97 -47 -219 -128 -284 -188 -25 -23 -79 -90 -118 -147
-40 -58 -90 -121 -111 -140 -34 -30 -46 -35 -90 -35 -48 0 -53 -3 -101 -52
-29 -29 -94 -107 -147 -173 -182 -230 -203 -254 -256 -290 -84 -55 -277 -279
-351 -407 -25 -43 -87 -121 -137 -176 -53 -57 -104 -122 -121 -156 -21 -41
-51 -77 -105 -124 -167 -148 -192 -184 -199 -292 l-5 -64 -135 -153 c-74 -84
-139 -153 -143 -153 -5 0 -9 -13 -9 -28 0 -50 -29 -126 -73 -187 l-42 -59 -52
3 c-28 1 -54 -2 -57 -8 -4 -6 -11 -35 -16 -65 -12 -75 -90 -202 -199 -324 -48
-53 -106 -123 -129 -154 -24 -32 -47 -58 -52 -58 -15 0 -80 -61 -94 -89 -8
-14 -19 -60 -26 -101 -12 -71 -15 -77 -65 -125 -35 -33 -78 -93 -126 -175 -40
-69 -115 -192 -167 -275 -133 -212 -212 -385 -212 -462 0 -23 2 -23 53 -17 90
11 449 72 522 88 l70 16 82 158 c44 86 155 301 246 477 90 176 201 383 245
461 99 173 146 267 266 527 109 237 120 256 218 368 41 47 110 139 154 204 43
66 169 239 279 386 226 302 275 378 303 473 18 60 28 74 99 144 44 42 134 142
202 222 67 80 197 235 290 345 163 193 267 302 380 395 29 25 76 74 104 110
62 78 59 76 172 151 50 33 96 68 103 77 31 41 -6 112 -59 112 -14 0 -62 -18
-107 -40z"/>
<path d="M17642 6937 c-71 -75 -76 -215 -13 -339 l29 -56 -52 15 c-79 24 -77
25 -101 -55 l-23 -73 22 -9 c41 -15 912 -280 922 -280 11 0 59 139 50 147 -3
3 -92 32 -198 65 -425 130 -446 137 -485 171 -68 60 -89 150 -59 252 8 26 24
57 36 69 l20 23 -60 46 c-33 26 -61 47 -63 47 -2 0 -13 -10 -25 -23z"/>
<path d="M1398 6932 c-26 -9 -49 -19 -52 -22 -3 -3 1 -27 9 -52 l14 -47 -62
-20 c-542 -174 -601 -197 -644 -243 -28 -30 -53 -89 -53 -125 0 -32 37 -174
48 -185 10 -10 142 33 142 47 0 5 -7 32 -15 58 -16 55 -8 88 27 111 13 8 151
56 308 106 157 51 288 94 292 97 4 2 19 -34 34 -81 l27 -84 61 21 c34 11 64
22 68 26 4 3 -4 42 -17 86 -14 43 -24 79 -22 80 1 1 62 20 135 44 72 23 132
47 132 53 0 6 -10 42 -21 78 l-22 67 -136 -43 c-74 -24 -138 -40 -142 -36 -4
4 -12 24 -19 45 -13 42 -22 44 -92 19z"/>
<path d="M3260 6916 c0 -13 134 -304 205 -446 128 -256 180 -345 210 -358 15
-7 76 -12 147 -12 l122 0 55 59 c31 32 68 67 84 76 21 14 27 25 27 55 0 20 7
59 15 86 21 68 19 91 -10 119 -20 20 -34 25 -78 25 -53 0 -56 1 -118 63 -92
90 -182 147 -230 147 -29 0 -39 -4 -39 -16 0 -11 -6 -14 -22 -9 -57 17 -152
68 -255 138 -62 42 -113 75 -113 73z"/>
<path d="M1375 5798 c-247 -111 -451 -202 -453 -204 -6 -4 61 -144 68 -144 5
0 140 59 302 131 296 133 346 149 421 135 76 -14 169 -129 171 -212 1 -44 2
-45 30 -40 16 3 50 6 76 6 43 0 48 3 54 25 23 93 -89 234 -225 282 l-49 18 60
27 c33 15 60 31 60 36 0 10 -59 142 -63 141 -1 0 -204 -91 -452 -201z"/>
<path d="M16937 5979 c-122 -29 -216 -133 -262 -294 -34 -116 0 -234 92 -315
45 -39 338 -190 718 -368 118 -56 122 -57 210 -57 75 0 97 4 133 23 59 32 118
95 154 167 84 165 76 282 -28 394 -47 51 -75 70 -182 122 -578 283 -641 312
-702 325 -73 15 -80 16 -133 3z m139 -173 c95 -34 721 -349 751 -378 58 -56
66 -133 23 -217 -42 -84 -120 -123 -201 -101 -23 6 -205 92 -404 190 -393 193
-411 205 -422 289 -10 76 47 189 111 217 40 17 94 17 142 0z"/>
<path d="M2164 4972 c-9 -5 -6 -26 10 -75 11 -38 24 -66 28 -62 13 14 105 -16
141 -46 74 -61 99 -173 54 -240 -24 -36 -114 -109 -134 -109 -7 0 -45 51 -86
113 -117 180 -197 236 -319 225 -110 -9 -247 -104 -288 -200 -42 -97 -8 -223
89 -330 49 -54 79 -73 134 -83 l38 -7 -36 -25 -35 -24 22 -40 c13 -21 32 -51
43 -65 l21 -26 294 192 c351 228 349 227 388 286 81 121 54 284 -69 418 -68
74 -134 106 -218 106 -37 0 -71 -4 -77 -8z m-216 -362 c36 -16 54 -37 118
-135 42 -64 74 -118 72 -120 -1 -1 -46 -30 -99 -64 -130 -83 -171 -81 -253 9
-118 131 -96 263 53 316 48 17 59 17 109 -6z"/>
<path d="M16273 4935 c-96 -44 -179 -150 -209 -265 -36 -142 27 -265 201 -390
128 -92 183 -115 280 -115 67 0 88 5 131 27 62 33 119 94 149 161 l22 50 158
-286 158 -286 52 72 53 72 -23 40 c-13 22 -92 162 -175 310 -84 149 -172 297
-195 331 -81 113 -248 245 -360 285 -79 28 -176 25 -242 -6z m205 -155 c57
-26 164 -103 201 -145 60 -69 61 -150 2 -232 -49 -68 -135 -91 -213 -59 -50
21 -191 128 -218 165 -44 63 -39 159 13 218 66 75 131 91 215 53z"/>
<path d="M15551 4019 c-92 -18 -205 -114 -257 -217 -41 -82 -41 -183 0 -267
34 -71 193 -236 270 -280 100 -58 210 -64 304 -16 47 24 118 93 141 139 l18
34 111 -274 c61 -151 116 -287 122 -303 l11 -28 30 29 c17 16 44 46 60 66 l30
37 -126 307 c-188 456 -218 510 -363 637 -94 84 -139 111 -217 131 -65 18 -70
18 -134 5z m143 -179 c54 -26 187 -155 209 -202 38 -82 10 -176 -71 -233 -57
-39 -128 -41 -188 -5 -57 35 -173 149 -195 192 -28 55 -25 125 7 175 57 86
151 116 238 73z"/>
<path d="M2967 3950 c-74 -19 -140 -63 -315 -209 -180 -151 -231 -207 -257
-282 -59 -167 62 -352 241 -367 l66 -5 -43 -37 -43 -37 52 -61 53 -61 227 190
c125 105 365 306 534 447 169 142 307 259 307 262 0 3 -23 31 -52 63 l-52 59
-195 -164 -195 -164 0 85 c0 92 -10 120 -66 192 -56 72 -172 111 -262 89z
m131 -184 c59 -31 112 -110 112 -168 0 -69 -37 -116 -195 -250 -209 -177 -267
-203 -353 -159 -93 48 -135 148 -98 234 7 18 35 53 62 79 87 83 278 237 319
258 47 23 115 26 153 6z"/>
<path d="M14693 3239 l-73 -60 -36 -115 -36 -114 48 -58 c26 -31 50 -60 54
-64 3 -5 25 48 49 117 24 69 46 125 50 124 3 0 175 -210 381 -465 206 -256
381 -470 387 -476 13 -10 25 -3 107 64 l28 24 -437 539 c-240 297 -440 541
-443 542 -4 1 -40 -25 -79 -58z"/>
<path d="M3793 3053 c-37 -86 -133 -305 -213 -486 l-145 -330 -79 -46 c-67
-39 -88 -46 -132 -46 -44 0 -58 5 -92 32 l-41 33 -51 -58 -51 -57 38 -34 c82
-72 176 -97 259 -67 28 10 1127 669 1152 691 4 4 -95 97 -112 106 -6 3 -148
-81 -316 -188 -168 -107 -317 -200 -331 -208 -24 -13 -7 28 137 339 90 195
164 358 164 363 0 6 -27 33 -59 61 l-59 52 -69 -157z"/>
<path d="M4804 2332 c-98 -34 -141 -80 -279 -302 -118 -188 -139 -239 -140
-330 0 -60 5 -85 24 -125 57 -115 215 -222 345 -232 59 -5 72 -3 129 25 35 18
72 41 82 52 17 19 17 21 -31 77 -26 32 -49 59 -50 61 -1 2 -18 -8 -38 -22 -70
-47 -135 -43 -214 15 -85 62 -104 155 -54 250 16 30 68 116 116 192 103 161
137 191 219 191 66 1 137 -33 175 -82 23 -31 27 -45 27 -104 l0 -69 50 -14
c94 -27 98 -26 113 30 34 130 -35 261 -181 344 -106 60 -202 74 -293 43z"/>
<path d="M13298 2315 l-67 -35 114 -223 c63 -123 115 -227 115 -230 0 -4 -19
1 -42 11 -59 23 -160 21 -219 -5 -109 -49 -164 -133 -162 -248 1 -89 20 -140
141 -375 104 -201 159 -272 238 -310 89 -43 216 -21 299 52 46 41 85 102 85
135 0 10 4 24 9 32 7 11 15 3 31 -30 12 -24 24 -45 25 -47 2 -2 35 13 75 33
l71 36 -84 162 c-46 89 -189 368 -317 620 -127 251 -235 457 -238 457 -4 -1
-37 -16 -74 -35z m169 -586 c56 -27 82 -66 187 -279 73 -147 86 -179 86 -222
0 -68 -25 -115 -77 -148 -83 -53 -165 -47 -228 15 -21 22 -71 108 -130 226
-87 174 -95 195 -95 248 0 76 26 117 99 154 65 32 100 34 158 6z"/>
<path d="M5747 1853 c-3 -21 -27 -256 -53 -523 l-48 -485 -54 -67 c-53 -67
-114 -108 -160 -108 -12 0 -40 7 -62 16 -23 9 -42 15 -44 13 -2 -2 -17 -34
-34 -71 l-30 -67 56 -22 c31 -11 82 -23 112 -26 46 -4 64 0 110 24 49 25 102
82 489 533 l434 505 -69 32 c-38 18 -73 32 -79 32 -5 0 -120 -134 -254 -296
-135 -163 -246 -292 -248 -286 -2 6 17 180 42 388 25 208 44 379 42 381 -4 4
-135 64 -141 64 -2 0 -6 -17 -9 -37z"/>
<path d="M7134 1756 c-2 -6 -15 -43 -28 -83 l-24 -71 75 -27 c41 -14 76 -25
78 -23 7 7 57 159 54 162 -2 1 -37 14 -77 28 -50 18 -75 22 -78 14z"/>
<path d="M12131 1415 c-132 -37 -235 -120 -267 -217 -30 -91 -17 -175 61 -388
37 -102 76 -202 87 -223 27 -54 84 -114 137 -145 42 -24 55 -27 146 -27 93 0
105 2 173 34 141 66 212 179 199 316 -6 62 -114 380 -164 480 -72 144 -221
212 -372 170z m146 -164 c58 -27 83 -70 158 -275 70 -192 79 -248 48 -313 -20
-42 -72 -79 -134 -92 -81 -18 -151 15 -190 91 -31 61 -137 358 -145 404 -12
80 38 157 121 188 55 20 92 19 142 -3z"/>
<path d="M9067 1323 c-3 -43 -3 -80 -1 -83 6 -6 147 -18 153 -13 10 8 16 155
6 158 -5 2 -42 6 -81 9 l-71 6 -6 -77z"/>
<path d="M7005 1379 c-3 -8 -88 -257 -191 -554 -102 -297 -193 -548 -202 -559
-30 -33 -60 -38 -114 -20 -28 9 -53 12 -58 8 -4 -5 -17 -37 -28 -71 l-21 -63
80 -25 c90 -28 111 -30 160 -14 50 17 95 54 123 102 32 55 409 1148 399 1158
-5 3 -33 15 -63 24 -30 10 -61 20 -67 22 -7 3 -15 -1 -18 -8z"/>
<path d="M7631 700 c-51 -264 -90 -483 -87 -488 5 -9 145 -37 150 -31 2 2 31
148 65 324 34 176 68 341 77 366 24 76 84 119 163 119 46 0 117 -24 144 -48
27 -24 57 -91 57 -129 0 -18 -29 -184 -65 -369 -36 -185 -65 -338 -63 -339 8
-8 158 -32 158 -25 0 4 30 159 66 346 69 353 78 437 55 517 -51 177 -305 245
-451 120 -26 -22 -41 -31 -37 -21 3 10 9 39 13 66 l6 48 -65 12 c-35 7 -71 12
-78 12 -11 0 -37 -116 -108 -480z"/>
<path d="M10032 1015 c-163 -37 -262 -170 -262 -354 0 -106 28 -373 44 -418
40 -113 107 -188 199 -220 76 -26 223 -23 299 6 66 26 132 85 159 144 33 74
29 83 -52 102 -39 9 -72 15 -73 13 -34 -80 -69 -112 -141 -128 -58 -13 -107
-5 -162 26 -50 29 -88 101 -98 187 -6 51 -4 57 12 57 48 2 524 47 528 51 7 8
-15 210 -30 271 -52 210 -214 311 -423 263z m150 -145 c45 -13 103 -75 117
-127 6 -21 14 -61 17 -89 l6 -51 -138 -12 c-77 -6 -165 -14 -196 -18 l-56 -5
-7 45 c-13 85 25 195 79 230 50 33 118 43 178 27z"/>
<path d="M9040 1010 c0 -4 -18 -212 -40 -461 -22 -250 -40 -470 -40 -490 l0
-37 76 -7 c41 -4 77 -5 78 -3 3 3 87 951 86 975 0 7 -15 14 -32 17 -69 11
-128 13 -128 6z"/>
</g>
</svg>
